<svg xmlns="http://www.w3.org/2000/svg" xmlns:xlink="http://www.w3.org/1999/xlink" contentStyleType="text/css" data-diagram-type="SEQUENCE" height="366px" preserveAspectRatio="none" style="width:923px;height:366px;background:#FFFFFF;" version="1.1" viewBox="0 0 923 366" width="923px" zoomAndPan="magnify"><defs/><g><g><title>GitHub</title><rect fill="#000000" fill-opacity="0.00000" height="295.1953" width="8" x="32.2573" y="36.2969"/><line style="stroke:#181818;stroke-width:0.5;stroke-dasharray:5.0,5.0;" x1="36" x2="36" y1="36.2969" y2="331.4922"/></g><g><title>Webhook</title><rect fill="#000000" fill-opacity="0.00000" height="295.1953" width="8" x="141.1445" y="36.2969"/><line style="stroke:#181818;stroke-width:0.5;stroke-dasharray:5.0,5.0;" x1="144.4175" x2="144.4175" y1="36.2969" y2="331.4922"/></g><g><title>Jenkins</title><rect fill="#000000" fill-opacity="0.00000" height="295.1953" width="8" x="350.2612" y="36.2969"/><line style="stroke:#181818;stroke-width:0.5;stroke-dasharray:5.0,5.0;" x1="353.3716" x2="353.3716" y1="36.2969" y2="331.4922"/></g><g><title>Docker</title><rect fill="#000000" fill-opacity="0.00000" height="295.1953" width="8" x="561.5933" y="36.2969"/><line style="stroke:#181818;stroke-width:0.5;stroke-dasharray:5.0,5.0;" x1="564.8335" x2="564.8335" y1="36.2969" y2="331.4922"/></g><g><title>Container</title><rect fill="#000000" fill-opacity="0.00000" height="295.1953" width="8" x="717.9355" y="36.2969"/><line style="stroke:#181818;stroke-width:0.5;stroke-dasharray:5.0,5.0;" x1="721.7285" x2="721.7285" y1="36.2969" y2="331.4922"/></g><g><title>Allure</title><rect fill="#000000" fill-opacity="0.00000" height="295.1953" width="8" x="830.1934" y="36.2969"/><line style="stroke:#181818;stroke-width:0.5;stroke-dasharray:5.0,5.0;" x1="833.894" x2="833.894" y1="36.2969" y2="331.4922"/></g><g><title>User</title><rect fill="#000000" fill-opacity="0.00000" height="295.1953" width="8" x="890.4478" y="36.2969"/><line style="stroke:#181818;stroke-width:0.5;stroke-dasharray:5.0,5.0;" x1="893.4927" x2="893.4927" y1="36.2969" y2="331.4922"/></g><g class="participant participant-head" data-participant="GitHub"><rect fill="#E2E2F0" height="30.2969" rx="2.5" ry="2.5" style="stroke:#181818;stroke-width:0.5;" width="62.5146" x="5" y="5"/><text fill="#000000" font-family="sans-serif" font-size="14" lengthAdjust="spacing" textLength="48.5146" x="12" y="24.9951">GitHub</text></g><g class="participant participant-tail" data-participant="GitHub"><rect fill="#E2E2F0" height="30.2969" rx="2.5" ry="2.5" style="stroke:#181818;stroke-width:0.5;" width="62.5146" x="5" y="330.4922"/><text fill="#000000" font-family="sans-serif" font-size="14" lengthAdjust="spacing" textLength="48.5146" x="12" y="350.4873">GitHub</text></g><g class="participant participant-head" data-participant="Webhook"><rect fill="#E2E2F0" height="30.2969" rx="2.5" ry="2.5" style="stroke:#181818;stroke-width:0.5;" width="79.4541" x="105.4175" y="5"/><text fill="#000000" font-family="sans-serif" font-size="14" lengthAdjust="spacing" textLength="65.4541" x="112.4175" y="24.9951">Webhook</text></g><g class="participant participant-tail" data-participant="Webhook"><rect fill="#E2E2F0" height="30.2969" rx="2.5" ry="2.5" style="stroke:#181818;stroke-width:0.5;" width="79.4541" x="105.4175" y="330.4922"/><text fill="#000000" font-family="sans-serif" font-size="14" lengthAdjust="spacing" textLength="65.4541" x="112.4175" y="350.4873">Webhook</text></g><g class="participant participant-head" data-participant="Jenkins"><rect fill="#E2E2F0" height="30.2969" rx="2.5" ry="2.5" style="stroke:#181818;stroke-width:0.5;" width="63.7793" x="322.3716" y="5"/><text fill="#000000" font-family="sans-serif" font-size="14" lengthAdjust="spacing" textLength="49.7793" x="329.3716" y="24.9951">Jenkins</text></g><g class="participant participant-tail" data-participant="Jenkins"><rect fill="#E2E2F0" height="30.2969" rx="2.5" ry="2.5" style="stroke:#181818;stroke-width:0.5;" width="63.7793" x="322.3716" y="330.4922"/><text fill="#000000" font-family="sans-serif" font-size="14" lengthAdjust="spacing" textLength="49.7793" x="329.3716" y="350.4873">Jenkins</text></g><g class="participant participant-head" data-participant="Docker"><rect fill="#E2E2F0" height="30.2969" rx="2.5" ry="2.5" style="stroke:#181818;stroke-width:0.5;" width="63.5195" x="533.8335" y="5"/><text fill="#000000" font-family="sans-serif" font-size="14" lengthAdjust="spacing" textLength="49.5195" x="540.8335" y="24.9951">Docker</text></g><g class="participant participant-tail" data-participant="Docker"><rect fill="#E2E2F0" height="30.2969" rx="2.5" ry="2.5" style="stroke:#181818;stroke-width:0.5;" width="63.5195" x="533.8335" y="330.4922"/><text fill="#000000" font-family="sans-serif" font-size="14" lengthAdjust="spacing" textLength="49.5195" x="540.8335" y="350.4873">Docker</text></g><g class="participant participant-head" data-participant="Container"><rect fill="#E2E2F0" height="30.2969" rx="2.5" ry="2.5" style="stroke:#181818;stroke-width:0.5;" width="82.4141" x="680.7285" y="5"/><text fill="#000000" font-family="sans-serif" font-size="14" lengthAdjust="spacing" textLength="68.4141" x="687.7285" y="24.9951">Container</text></g><g class="participant participant-tail" data-participant="Container"><rect fill="#E2E2F0" height="30.2969" rx="2.5" ry="2.5" style="stroke:#181818;stroke-width:0.5;" width="82.4141" x="680.7285" y="330.4922"/><text fill="#000000" font-family="sans-serif" font-size="14" lengthAdjust="spacing" textLength="68.4141" x="687.7285" y="350.4873">Container</text></g><g class="participant participant-head" data-participant="Allure"><rect fill="#E2E2F0" height="30.2969" rx="2.5" ry="2.5" style="stroke:#181818;stroke-width:0.5;" width="54.5986" x="806.894" y="5"/><text fill="#000000" font-family="sans-serif" font-size="14" lengthAdjust="spacing" textLength="40.5986" x="813.894" y="24.9951">Allure</text></g><g class="participant participant-tail" data-participant="Allure"><rect fill="#E2E2F0" height="30.2969" rx="2.5" ry="2.5" style="stroke:#181818;stroke-width:0.5;" width="54.5986" x="806.894" y="330.4922"/><text fill="#000000" font-family="sans-serif" font-size="14" lengthAdjust="spacing" textLength="40.5986" x="813.894" y="350.4873">Allure</text></g><g class="participant participant-head" data-participant="User"><rect fill="#E2E2F0" height="30.2969" rx="2.5" ry="2.5" style="stroke:#181818;stroke-width:0.5;" width="45.9102" x="871.4927" y="5"/><text fill="#000000" font-family="sans-serif" font-size="14" lengthAdjust="spacing" textLength="31.9102" x="878.4927" y="24.9951">User</text></g><g class="participant participant-tail" data-participant="User"><rect fill="#E2E2F0" height="30.2969" rx="2.5" ry="2.5" style="stroke:#181818;stroke-width:0.5;" width="45.9102" x="871.4927" y="330.4922"/><text fill="#000000" font-family="sans-serif" font-size="14" lengthAdjust="spacing" textLength="31.9102" x="878.4927" y="350.4873">User</text></g><g class="message" data-participant-1="GitHub" data-participant-2="Webhook"><polygon fill="#181818" points="133.1445,63.4297,143.1445,67.4297,133.1445,71.4297,137.1445,67.4297" style="stroke:#181818;stroke-width:1;"/><line style="stroke:#181818;stroke-width:1;" x1="36.2573" x2="139.1445" y1="67.4297" y2="67.4297"/><text fill="#000000" font-family="sans-serif" font-size="13" lengthAdjust="spacing" textLength="84.8872" x="43.2573" y="62.3638">Push to main</text></g><g class="message" data-participant-1="Webhook" data-participant-2="Jenkins"><polygon fill="#181818" points="342.2612,92.5625,352.2612,96.5625,342.2612,100.5625,346.2612,96.5625" style="stroke:#181818;stroke-width:1;"/><line style="stroke:#181818;stroke-width:1;" x1="145.1445" x2="348.2612" y1="96.5625" y2="96.5625"/><text fill="#000000" font-family="sans-serif" font-size="13" lengthAdjust="spacing" textLength="185.1167" x="152.1445" y="91.4966">HTTP request (Trigger Build)</text></g><g class="message" data-participant-1="Jenkins" data-participant-2="Jenkins"><line style="stroke:#181818;stroke-width:1;" x1="354.2612" x2="396.2612" y1="125.6953" y2="125.6953"/><line style="stroke:#181818;stroke-width:1;" x1="396.2612" x2="396.2612" y1="125.6953" y2="138.6953"/><line style="stroke:#181818;stroke-width:1;" x1="355.2612" x2="396.2612" y1="138.6953" y2="138.6953"/><polygon fill="#181818" points="365.2612,134.6953,355.2612,138.6953,365.2612,142.6953,361.2612,138.6953" style="stroke:#181818;stroke-width:1;"/><text fill="#000000" font-family="sans-serif" font-size="13" lengthAdjust="spacing" textLength="103.4033" x="361.2612" y="120.6294">Read Jenkinsfile</text></g><g class="message" data-participant-1="Jenkins" data-participant-2="Docker"><polygon fill="#181818" points="553.5933,163.8281,563.5933,167.8281,553.5933,171.8281,557.5933,167.8281" style="stroke:#181818;stroke-width:1;"/><line style="stroke:#181818;stroke-width:1;" x1="354.2612" x2="559.5933" y1="167.8281" y2="167.8281"/><text fill="#000000" font-family="sans-serif" font-size="13" lengthAdjust="spacing" textLength="187.332" x="361.2612" y="162.7622">Docker Build from Dockerfile</text></g><g class="message" data-participant-1="Jenkins" data-participant-2="Docker"><polygon fill="#181818" points="553.5933,192.9609,563.5933,196.9609,553.5933,200.9609,557.5933,196.9609" style="stroke:#181818;stroke-width:1;"/><line style="stroke:#181818;stroke-width:1;" x1="354.2612" x2="559.5933" y1="196.9609" y2="196.9609"/><text fill="#000000" font-family="sans-serif" font-size="13" lengthAdjust="spacing" textLength="97.4873" x="361.2612" y="191.895">Start container</text></g><g class="message" data-participant-1="Docker" data-participant-2="Container"><polygon fill="#181818" points="709.9355,222.0938,719.9355,226.0938,709.9355,230.0938,713.9355,226.0938" style="stroke:#181818;stroke-width:1;"/><line style="stroke:#181818;stroke-width:1;" x1="565.5933" x2="715.9355" y1="226.0938" y2="226.0938"/><text fill="#000000" font-family="sans-serif" font-size="13" lengthAdjust="spacing" textLength="132.3423" x="572.5933" y="221.0278">Container is running</text></g><g class="message" data-participant-1="Container" data-participant-2="Allure"><polygon fill="#181818" points="822.1934,251.2266,832.1934,255.2266,822.1934,259.2266,826.1934,255.2266" style="stroke:#181818;stroke-width:1;"/><line style="stroke:#181818;stroke-width:1;" x1="721.9355" x2="828.1934" y1="255.2266" y2="255.2266"/><text fill="#000000" font-family="sans-serif" font-size="13" lengthAdjust="spacing" textLength="88.2578" x="728.9355" y="250.1606">Execute tests</text></g><g class="message" data-participant-1="Allure" data-participant-2="Jenkins"><polygon fill="#181818" points="365.2612,280.3594,355.2612,284.3594,365.2612,288.3594,361.2612,284.3594" style="stroke:#181818;stroke-width:1;"/><line style="stroke:#181818;stroke-width:1;" x1="359.2612" x2="833.1934" y1="284.3594" y2="284.3594"/><text fill="#000000" font-family="sans-serif" font-size="13" lengthAdjust="spacing" textLength="213.6367" x="371.2612" y="279.2935">Generate and publish test report</text></g><g class="message" data-participant-1="Jenkins" data-participant-2="User"><polygon fill="#181818" points="882.4478,309.4922,892.4478,313.4922,882.4478,317.4922,886.4478,313.4922" style="stroke:#181818;stroke-width:1;"/><line style="stroke:#181818;stroke-width:1;" x1="354.2612" x2="888.4478" y1="313.4922" y2="313.4922"/><text fill="#000000" font-family="sans-serif" font-size="13" lengthAdjust="spacing" textLength="154.0894" x="361.2612" y="308.4263">Access report via Allure</text></g><!--SRC=[TP31JiCm38RlUGeVuS0BS43Q06tYDB4YpcdgTLQx93WEul7nrdHhaBYbNpxtp-zeMSXHj5vWGxBDhOaBz8djCOIXOc_e1_AfOY_13SWLUWvUBFa_T3MEcT6OAGiUdkO8U8HTJaUG02STCpDMemIgiMsQ7J1-PKm2TmrJtoF3EjFOtPjPgoRUqNRpvu56N5hJerKgXyj_uC3XLCY_0tlHIk2k3Sk5AjVMQjtEb82pz-HxSuDgJzjGzVK7NHO4qMB955mLsQ3EM5Mixo3cTgJpiivxO8o1PVdEZtJ9Npc7APLx-2PRydu1]--></g></svg>